# xmcd
#
# Track frame offsets:
# 150
# 32173
# 67533
# 94004
# 128094
# 162655
# 196400
# 222235
# 261815
#
# Disc length: 3971 seconds
#
#
# Revision: 0
# Processed by: cddbd v1.5PL3 Copyright (c) Steve Scherf et al.
# Submitted via: FreeRIP 2.70 
#
DISCID=790f8109
DTITLE=Tender Blues - Zabuta Kolija
DYEAR=1999
DGENRE=Blues
TTITLE0=Pryvokzalni dzvony
TTITLE1=Mehanizm Valsharta
TTITLE2=Peregin
TTITLE3=Na peroni
TTITLE4=Zabuta kolija
TTITLE5=Oleksandra
TTITLE6=Po sadochku hodzhu
TTITLE7=Spominy
TTITLE8=Tender blues
EXTD=
EXTT0=
EXTT1=
EXTT2=
EXTT3=
EXTT4=
EXTT5=
EXTT6=
EXTT7=
EXTT8=
PLAYORDER=
